<svg width="134" height="183" viewBox="0 0 134 183" fill="none" xmlns="http://www.w3.org/2000/svg">
<g opacity="0.8" clip-path="url(#clip0_2234_9590)">
<path d="M39.2607 176.628C40.7328 176.631 41.8343 177.742 41.8307 179.219C41.8271 180.696 40.7203 181.801 39.2481 181.797C37.776 181.794 36.6746 180.683 36.6782 179.206C36.6818 177.729 37.9112 176.624 39.2607 176.628Z" fill="#FFCF2D"/>
<path d="M39.3144 154.594C40.7866 154.598 41.888 155.709 41.8844 157.186C41.8808 158.663 40.774 159.768 39.3018 159.764C37.8297 159.76 36.7283 158.65 36.7319 157.173C36.7352 155.819 37.965 154.591 39.3144 154.594Z" fill="#FFCF2D"/>
<path d="M39.3676 132.686C40.8398 132.69 41.9412 133.8 41.9376 135.277C41.934 136.754 40.8272 137.859 39.3551 137.856C37.8829 137.852 36.7815 136.742 36.7851 135.265C36.7887 133.788 38.0182 132.683 39.3676 132.686Z" fill="#FFCF2D"/>
<path d="M39.4213 110.653C40.8935 110.657 41.9949 111.767 41.9913 113.244C41.9877 114.721 40.8809 115.826 39.4088 115.823C37.9366 115.819 36.8352 114.709 36.8388 113.232C36.8424 111.755 38.0719 110.65 39.4213 110.653Z" fill="#FFCF2D"/>
<path d="M39.4751 88.6208C40.9472 88.6244 42.0486 89.7349 42.045 91.2119C42.0414 92.6889 40.9346 93.794 39.4625 93.7904C37.9903 93.7869 36.8889 92.6764 36.8925 91.1994C36.8958 89.8454 38.1256 88.6175 39.4751 88.6208Z" fill="#FFCF2D"/>
<path d="M39.5288 66.5886C41.0009 66.5922 42.1023 67.7026 42.0987 69.1797C42.0951 70.6567 40.9883 71.7618 39.5162 71.7582C38.044 71.7546 36.9426 70.6442 36.9462 69.1671C36.9498 67.6901 38.1793 66.5853 39.5288 66.5886Z" fill="#FFCF2D"/>
<path d="M39.582 44.6794C41.0541 44.683 42.1556 45.7935 42.152 47.2705C42.1484 48.7475 41.0416 49.8526 39.5694 49.849C38.0973 49.8455 36.9959 48.735 36.9995 47.258C37.003 45.7809 38.2325 44.6761 39.582 44.6794Z" fill="#FFCF2D"/>
<path d="M39.6357 22.6462C41.1078 22.6498 42.2093 23.7603 42.2057 25.2373C42.2021 26.7143 41.0953 27.8194 39.6231 27.8158C38.151 27.8123 37.0496 26.7018 37.0532 25.2248C37.0568 23.7477 38.2862 22.6429 39.6357 22.6462Z" fill="#FFCF2D"/>
<path d="M39.6889 0.614012C41.1611 0.617594 42.2625 1.72804 42.2589 3.20507C42.2553 4.6821 41.1485 5.7872 39.6763 5.78361C38.2042 5.78003 37.1028 4.66956 37.1064 3.19253C37.1097 1.83859 38.3395 0.610728 39.6889 0.614012Z" fill="#FFCF2D"/>
<path d="M57.54 176.672C59.0122 176.675 60.1136 177.786 60.11 179.263C60.1064 180.74 58.9996 181.845 57.5274 181.841C56.0553 181.838 54.9539 180.727 54.9575 179.25C54.9611 177.773 56.0679 176.668 57.54 176.672Z" fill="#FFCF2D"/>
<path d="M57.5932 154.639C59.0654 154.643 60.1668 155.753 60.1632 157.23C60.1596 158.707 59.0528 159.813 57.5807 159.809C56.1085 159.805 55.0071 158.695 55.0107 157.218C55.014 155.864 56.1211 154.636 57.5932 154.639Z" fill="#FFCF2D"/>
<path d="M57.6469 132.73C59.1191 132.734 60.2205 133.844 60.2169 135.321C60.2133 136.798 59.1065 137.903 57.6344 137.9C56.1622 137.896 55.0608 136.786 55.0644 135.309C55.068 133.832 56.1748 132.727 57.6469 132.73Z" fill="#FFCF2D"/>
<path d="M57.7002 110.698C59.1723 110.702 60.2737 111.812 60.2701 113.289C60.2665 114.766 59.1597 115.871 57.6876 115.868C56.2154 115.864 55.114 114.754 55.1176 113.277C55.1212 111.799 56.228 110.694 57.7002 110.698Z" fill="#FFCF2D"/>
<path d="M57.7539 88.6648C59.226 88.6684 60.3274 89.7788 60.3238 91.2559C60.3202 92.7329 59.2134 93.838 57.7413 93.8344C56.2692 93.8308 55.1677 92.7203 55.1713 91.2433C55.1746 89.8894 56.2817 88.6612 57.7539 88.6648Z" fill="#FFCF2D"/>
<path d="M57.8076 66.6325C59.2797 66.6361 60.3811 67.7466 60.3775 69.2236C60.374 70.7007 59.2672 71.8058 57.795 71.8022C56.3229 71.7986 55.2214 70.6881 55.225 69.2111C55.2286 67.734 56.3354 66.629 57.8076 66.6325Z" fill="#FFCF2D"/>
<path d="M57.8608 44.7234C59.333 44.727 60.4344 45.8374 60.4308 47.3144C60.4272 48.7915 59.3204 49.8966 57.8482 49.893C56.3761 49.8894 55.2747 48.7789 55.2783 47.3019C55.2819 45.8249 56.3887 44.7198 57.8608 44.7234Z" fill="#FFCF2D"/>
<path d="M57.9145 22.6911C59.3867 22.6947 60.4881 23.8052 60.4845 25.2822C60.4809 26.7593 59.3741 27.8643 57.9019 27.8608C56.4298 27.8572 55.3284 26.7467 55.332 25.2697C55.3356 23.7926 56.4424 22.6875 57.9145 22.6911Z" fill="#FFCF2D"/>
<path d="M57.9682 0.658918C59.4404 0.662501 60.5418 1.77295 60.5382 3.24999C60.5346 4.72702 59.4278 5.83212 57.9557 5.82853C56.4835 5.82495 55.3821 4.71448 55.3857 3.23745C55.389 1.8835 56.4961 0.655336 57.9682 0.658918Z" fill="#FFCF2D"/>
<path d="M2.82516 176.539C4.29731 176.542 5.39872 177.653 5.39512 179.13C5.39153 180.607 4.28473 181.712 2.81258 181.708C1.34044 181.705 0.239024 180.594 0.242618 179.117C0.246212 177.64 1.35302 176.535 2.82516 176.539Z" fill="#FFCF2D"/>
<path d="M2.87887 154.507C4.35102 154.51 5.45243 155.621 5.44883 157.098C5.44524 158.575 4.33844 159.68 2.86629 159.676C1.39415 159.673 0.292735 158.562 0.296329 157.085C0.299624 155.731 1.40673 154.503 2.87887 154.507Z" fill="#FFCF2D"/>
<path d="M2.93209 132.597C4.40424 132.601 5.50565 133.711 5.50206 135.188C5.49846 136.666 4.39166 137.771 2.91951 137.767C1.44737 137.763 0.346257 136.53 0.349552 135.176C0.353146 133.699 1.45995 132.594 2.93209 132.597Z" fill="#FFCF2D"/>
<path d="M2.98581 110.564C4.45795 110.568 5.55936 111.678 5.55577 113.155C5.55217 114.632 4.44537 115.737 2.97323 115.734C1.50108 115.73 0.399968 114.497 0.403263 113.143C0.406557 111.789 1.51366 110.561 2.98581 110.564Z" fill="#FFCF2D"/>
<path d="M3.03952 88.532C4.51166 88.5355 5.61307 89.646 5.60948 91.123C5.60589 92.6001 4.49908 93.7052 3.02694 93.7016C1.55479 93.698 0.453379 92.5875 0.456974 91.1105C0.460268 89.7566 1.56737 88.5284 3.03952 88.532Z" fill="#FFCF2D"/>
<path d="M3.09274 66.4997C4.56488 66.5033 5.6663 67.6138 5.6627 69.0908C5.65911 70.5678 4.5523 71.6729 3.08016 71.6694C1.60801 71.6658 0.506602 70.5553 0.510196 69.0783C0.513791 67.6012 1.62059 66.4961 3.09274 66.4997Z" fill="#FFCF2D"/>
<path d="M3.14645 44.5906C4.61859 44.5941 5.72001 45.7046 5.71641 47.1816C5.71282 48.6587 4.60601 49.7638 3.13387 49.7602C1.66173 49.7566 0.560313 48.6461 0.563907 47.1691C0.567501 45.6921 1.67431 44.587 3.14645 44.5906Z" fill="#FFCF2D"/>
<path d="M3.19967 22.5583C4.67182 22.5619 5.77323 23.6724 5.76964 25.1494C5.76604 26.6264 4.65924 27.7315 3.18709 27.7279C1.71495 27.7244 0.613536 26.6139 0.61713 25.1369C0.620724 23.6598 1.72753 22.5547 3.19967 22.5583Z" fill="#FFCF2D"/>
<path d="M3.25338 0.525144C4.72553 0.528727 5.82694 1.63917 5.82335 3.1162C5.81975 4.59323 4.71295 5.69833 3.2408 5.69475C1.76866 5.69116 0.667247 4.5807 0.670841 3.10367C0.674136 1.74972 1.78124 0.521562 3.25338 0.525144Z" fill="#FFCF2D"/>
<path d="M21.1045 176.584C22.5766 176.587 23.678 177.698 23.6744 179.175C23.6708 180.652 22.4413 181.757 21.0919 181.753C19.6197 181.75 18.5183 180.639 18.5219 179.162C18.5255 177.685 19.6323 176.58 21.1045 176.584Z" fill="#FFCF2D"/>
<path d="M21.1582 154.551C22.6303 154.554 23.7317 155.665 23.7281 157.142C23.7245 158.619 22.6177 159.724 21.1456 159.72C19.6734 159.717 18.572 158.606 18.5756 157.129C18.5789 155.775 19.686 154.547 21.1582 154.551Z" fill="#FFCF2D"/>
<path d="M21.2114 132.641C22.6835 132.645 23.7849 133.755 23.7814 135.232C23.7778 136.709 22.671 137.815 21.1988 137.811C19.7267 137.807 18.6253 136.697 18.6288 135.22C18.6324 133.743 19.7392 132.638 21.2114 132.641Z" fill="#FFCF2D"/>
<path d="M21.2651 110.609C22.7372 110.613 23.8387 111.723 23.8351 113.2C23.8315 114.677 22.7247 115.782 21.2525 115.779C19.7804 115.775 18.679 114.665 18.6826 113.188C18.6862 111.711 19.793 110.606 21.2651 110.609Z" fill="#FFCF2D"/>
<path d="M21.3183 88.5769C22.7905 88.5805 23.8919 89.6909 23.8883 91.168C23.8847 92.645 22.7779 93.7501 21.3057 93.7465C19.8336 93.7429 18.7322 92.6325 18.7358 91.1554C18.7391 89.8015 19.8462 88.5733 21.3183 88.5769Z" fill="#FFCF2D"/>
<path d="M21.372 66.5437C22.8442 66.5473 23.9456 67.6577 23.942 69.1348C23.9384 70.6118 22.8316 71.7169 21.3595 71.7133C19.8873 71.7097 18.7859 70.5993 18.7895 69.1222C18.7931 67.6452 19.8999 66.5401 21.372 66.5437Z" fill="#FFCF2D"/>
<path d="M21.4253 44.6345C22.8974 44.6381 23.9988 45.7485 23.9952 47.2256C23.9916 48.7026 22.8848 49.8077 21.4127 49.8041C19.9405 49.8005 18.8391 48.6901 18.8427 47.213C18.8463 45.736 19.9531 44.6309 21.4253 44.6345Z" fill="#FFCF2D"/>
<path d="M21.479 22.6023C22.9511 22.6058 24.0525 23.7163 24.0489 25.1934C24.0453 26.6704 22.9385 27.7755 21.4664 27.7719C19.9942 27.7683 18.8928 26.6578 18.8964 25.1808C18.9 23.7038 20.0068 22.5987 21.479 22.6023Z" fill="#FFCF2D"/>
<path d="M21.5327 0.570051C23.0048 0.573634 24.1062 1.68408 24.1026 3.16112C24.099 4.63815 22.9922 5.74325 21.5201 5.73967C20.048 5.73609 18.9465 4.62562 18.9501 3.14858C18.9534 1.79463 20.0605 0.566469 21.5327 0.570051Z" fill="#FFCF2D"/>
<path d="M75.6963 176.717C77.1684 176.72 78.2698 177.831 78.2662 179.308C78.2626 180.785 77.1558 181.89 75.6837 181.886C74.2115 181.883 73.1101 180.772 73.1137 179.295C73.1173 177.818 74.3468 176.713 75.6963 176.717Z" fill="#FFCF2D"/>
<path d="M75.75 154.683C77.2221 154.687 78.3235 155.797 78.3199 157.274C78.3163 158.751 77.2095 159.857 75.7374 159.853C74.2652 159.849 73.1638 158.739 73.1674 157.262C73.1707 155.908 74.4005 154.68 75.75 154.683Z" fill="#FFCF2D"/>
<path d="M75.8032 132.774C77.2753 132.778 78.3767 133.888 78.3731 135.365C78.3696 136.842 77.2628 137.947 75.7906 137.944C74.3185 137.94 73.2171 136.83 73.2206 135.353C73.2242 133.876 74.4537 132.771 75.8032 132.774Z" fill="#FFCF2D"/>
<path d="M75.8569 110.742C77.329 110.745 78.4304 111.856 78.4269 113.333C78.4233 114.81 77.3165 115.915 75.8443 115.912C74.3722 115.908 73.2708 114.797 73.2744 113.32C73.278 111.843 74.5074 110.739 75.8569 110.742Z" fill="#FFCF2D"/>
<path d="M75.9106 88.7097C77.3828 88.7133 78.4842 89.8237 78.4806 91.3008C78.477 92.7778 77.3702 93.8829 75.898 93.8793C74.4259 93.8757 73.3245 92.7653 73.3281 91.2882C73.3314 89.9343 74.5611 88.7064 75.9106 88.7097Z" fill="#FFCF2D"/>
<path d="M75.9643 66.6765C77.4365 66.6801 78.5379 67.7905 78.5343 69.2676C78.5307 70.7446 77.4239 71.8497 75.9517 71.8461C74.4796 71.8425 73.3782 70.7321 73.3818 69.255C73.3854 67.778 74.6149 66.6732 75.9643 66.6765Z" fill="#FFCF2D"/>
<path d="M76.0175 44.7683C77.4897 44.7719 78.5911 45.8823 78.5875 47.3594C78.5839 48.8364 77.4771 49.9415 76.005 49.9379C74.5328 49.9343 73.4314 48.8239 73.435 47.3468C73.4386 45.8698 74.6681 44.765 76.0175 44.7683Z" fill="#FFCF2D"/>
<path d="M76.0713 22.7351C77.5434 22.7387 78.6448 23.8491 78.6412 25.3262C78.6376 26.8032 77.5308 27.9083 76.0587 27.9047C74.5865 27.9011 73.4851 26.7907 73.4887 25.3136C73.4923 23.8366 74.7218 22.7318 76.0713 22.7351Z" fill="#FFCF2D"/>
<path d="M76.125 0.702864C77.5971 0.706446 78.6985 1.8169 78.6949 3.29393C78.6913 4.77097 77.5845 5.87606 76.1124 5.87248C74.6402 5.8689 73.5388 4.75843 73.5424 3.28139C73.5457 1.92745 74.7755 0.69958 76.125 0.702864Z" fill="#FFCF2D"/>
<path d="M93.9755 176.76C95.4477 176.764 96.5491 177.875 96.5455 179.352C96.5419 180.829 95.4351 181.934 93.963 181.93C92.4908 181.927 91.3894 180.816 91.393 179.339C91.3966 177.862 92.5034 176.757 93.9755 176.76Z" fill="#FFCF2D"/>
<path d="M94.0288 154.728C95.5009 154.732 96.6023 155.842 96.5987 157.319C96.5951 158.796 95.4883 159.901 94.0162 159.898C92.544 159.894 91.4426 158.784 91.4462 157.307C91.4495 155.953 92.5566 154.725 94.0288 154.728Z" fill="#FFCF2D"/>
<path d="M94.0825 132.819C95.5546 132.823 96.656 133.933 96.6524 135.41C96.6488 136.887 95.542 137.992 94.0699 137.989C92.5978 137.985 91.4963 136.875 91.4999 135.398C91.5035 133.921 92.6103 132.815 94.0825 132.819Z" fill="#FFCF2D"/>
<path d="M96.7061 113.378C96.7096 111.95 95.559 110.79 94.1362 110.787C92.7134 110.783 91.5571 111.938 91.5537 113.365C91.5502 114.793 92.7008 115.953 94.1236 115.956C95.5464 115.96 96.7027 114.805 96.7061 113.378Z" fill="#FFCF2D"/>
<path d="M94.1894 88.7536C95.6616 88.7572 96.763 89.8677 96.7594 91.3447C96.7558 92.8218 95.649 93.9268 94.1768 93.9233C92.7047 93.9197 91.6033 92.8092 91.6069 91.3322C91.6102 89.9782 92.7173 88.7501 94.1894 88.7536Z" fill="#FFCF2D"/>
<path d="M94.2431 66.7214C95.7153 66.725 96.8167 67.8355 96.8131 69.3125C96.8095 70.7895 95.7027 71.8946 94.2305 71.891C92.7584 71.8875 91.657 70.777 91.6606 69.3C91.6642 67.8229 92.771 66.7178 94.2431 66.7214Z" fill="#FFCF2D"/>
<path d="M94.2963 44.8122C95.7685 44.8158 96.8699 45.9263 96.8663 47.4033C96.8627 48.8803 95.7559 49.9854 94.2838 49.9819C92.8116 49.9783 91.7102 48.8678 91.7138 47.3908C91.7174 45.9137 92.8242 44.8086 94.2963 44.8122Z" fill="#FFCF2D"/>
<path d="M96.92 25.3711C96.9235 23.9435 95.7729 22.7835 94.3501 22.78C92.9272 22.7765 91.771 23.931 91.7675 25.3585C91.764 26.7861 92.9147 27.9462 94.3375 27.9496C95.7603 27.9531 96.9165 26.7986 96.92 25.3711Z" fill="#FFCF2D"/>
<path d="M94.4038 0.746809C95.8759 0.750391 96.9773 1.86084 96.9737 3.33788C96.9701 4.81491 95.8633 5.92001 94.3912 5.91643C92.919 5.91284 91.8176 4.80237 91.8212 3.32534C91.8245 1.97139 92.9316 0.743227 94.4038 0.746809Z" fill="#FFCF2D"/>
<path d="M112.255 176.805C113.727 176.809 114.828 177.919 114.825 179.396C114.821 180.874 113.714 181.979 112.242 181.975C110.77 181.971 109.669 180.861 109.672 179.384C109.676 177.907 110.783 176.802 112.255 176.805Z" fill="#FFCF2D"/>
<path d="M112.308 154.772C113.78 154.776 114.882 155.886 114.878 157.363C114.874 158.84 113.768 159.945 112.296 159.942C110.823 159.938 109.722 158.828 109.726 157.351C109.729 155.997 110.836 154.769 112.308 154.772Z" fill="#FFCF2D"/>
<path d="M112.362 132.863C113.834 132.867 114.935 133.977 114.932 135.454C114.928 136.931 113.821 138.036 112.349 138.033C110.877 138.029 109.776 136.919 109.779 135.442C109.783 133.965 110.89 132.859 112.362 132.863Z" fill="#FFCF2D"/>
<path d="M112.415 110.831C113.887 110.834 114.989 111.945 114.985 113.422C114.981 114.899 113.875 116.004 112.402 116C110.93 115.997 109.829 114.886 109.832 113.409C109.836 111.932 110.943 110.827 112.415 110.831Z" fill="#FFCF2D"/>
<path d="M112.469 88.7986C113.941 88.8021 115.042 89.9126 115.039 91.3896C115.035 92.8667 113.928 93.9718 112.456 93.9682C110.984 93.9646 109.883 92.8541 109.886 91.3771C109.889 90.0232 110.997 88.795 112.469 88.7986Z" fill="#FFCF2D"/>
<path d="M112.522 66.7654C113.995 66.7689 115.096 67.8794 115.092 69.3564C115.089 70.8335 113.982 71.9386 112.51 71.935C111.038 71.9314 109.936 70.8209 109.94 69.3439C109.943 67.8669 111.05 66.7618 112.522 66.7654Z" fill="#FFCF2D"/>
<path d="M112.576 44.8572C114.048 44.8607 115.149 45.9712 115.146 47.4482C115.142 48.9253 114.035 50.0304 112.563 50.0268C111.091 50.0232 109.99 48.9127 109.993 47.4357C109.997 45.9587 111.104 44.8536 112.576 44.8572Z" fill="#FFCF2D"/>
<path d="M112.629 22.8239C114.102 22.8275 115.203 23.938 115.199 25.415C115.196 26.8921 114.089 27.9972 112.617 27.9936C111.145 27.99 110.043 26.8795 110.047 25.4025C110.05 23.9255 111.157 22.8204 112.629 22.8239Z" fill="#FFCF2D"/>
<path d="M112.683 0.791731C114.155 0.795313 115.257 1.90576 115.253 3.3828C115.249 4.85983 114.143 5.96493 112.671 5.96135C111.198 5.95776 110.097 4.84729 110.101 3.37026C110.104 2.01631 111.211 0.788149 112.683 0.791731Z" fill="#FFCF2D"/>
<path d="M130.411 176.849C131.883 176.853 132.985 177.963 132.981 179.44C132.977 180.917 131.871 182.023 130.399 182.019C128.926 182.015 127.825 180.905 127.829 179.428C127.832 177.951 129.062 176.846 130.411 176.849Z" fill="#FFCF2D"/>
<path d="M130.465 154.817C131.937 154.821 133.038 155.931 133.035 157.408C133.031 158.885 131.924 159.99 130.452 159.987C128.98 159.983 127.879 158.873 127.882 157.396C127.886 156.042 129.115 154.814 130.465 154.817Z" fill="#FFCF2D"/>
<path d="M130.518 132.908C131.99 132.912 133.092 134.022 133.088 135.499C133.084 136.976 131.978 138.081 130.505 138.078C129.033 138.074 127.932 136.964 127.935 135.486C127.939 134.009 129.169 132.905 130.518 132.908Z" fill="#FFCF2D"/>
<path d="M130.572 110.875C132.044 110.878 133.145 111.989 133.142 113.466C133.138 114.943 132.031 116.048 130.559 116.044C129.087 116.041 127.986 114.93 127.989 113.453C127.993 111.976 129.222 110.871 130.572 110.875Z" fill="#FFCF2D"/>
<path d="M130.625 88.8425C132.097 88.8461 133.199 89.9566 133.195 91.4336C133.191 92.9106 132.085 94.0157 130.612 94.0121C129.14 94.0085 128.039 92.8981 128.042 91.4211C128.046 90.0671 129.275 88.8392 130.625 88.8425Z" fill="#FFCF2D"/>
<path d="M130.679 66.8103C132.151 66.8139 133.252 67.9243 133.249 69.4014C133.245 70.8784 132.138 71.9835 130.666 71.9799C129.194 71.9763 128.093 70.8659 128.096 69.3888C128.1 67.9118 129.329 66.807 130.679 66.8103Z" fill="#FFCF2D"/>
<path d="M130.732 44.9011C132.204 44.9047 133.305 46.0151 133.302 47.4922C133.298 48.9692 132.191 50.0743 130.719 50.0707C129.247 50.0671 128.146 48.9567 128.149 47.4796C128.153 46.0026 129.382 44.8978 130.732 44.9011Z" fill="#FFCF2D"/>
<path d="M130.786 22.8689C132.258 22.8724 133.359 23.9829 133.356 25.46C133.352 26.937 132.245 28.0421 130.773 28.0385C129.301 28.0349 128.199 26.9245 128.203 25.4474C128.207 23.9704 129.436 22.8656 130.786 22.8689Z" fill="#FFCF2D"/>
<path d="M130.839 0.835676C132.311 0.839259 133.413 1.94971 133.409 3.42674C133.406 4.90378 132.299 6.00888 130.827 6.00529C129.355 6.00171 128.253 4.89124 128.257 3.41421C128.26 2.06026 129.49 0.832392 130.839 0.835676Z" fill="#FFCF2D"/>
</g>
<defs>
<clipPath id="clip0_2234_9590">
<rect width="181.184" height="132.739" fill="white" transform="translate(0.236328 181.702) rotate(-89.8606)"/>
</clipPath>
</defs>
</svg>
