<svg width="602" height="537" viewBox="0 0 602 537" fill="none" xmlns="http://www.w3.org/2000/svg">
<path d="M378.302 16.0508L420.208 55.3875L462.326 277.135H67.2539L378.302 16.0508Z" fill="#FFCF2D"/>
<path d="M420.568 55.0787L378.535 15.6185L385.565 8.51313C395.92 -1.94919 414.575 -0.75467 425.333 9.29575C436.09 19.3668 437.974 37.5111 427.62 47.9734L420.568 55.0787Z" fill="white"/>
<path d="M420.59 55.9436L377.646 15.6389L385.12 8.08048C390.16 2.97289 397.339 0.316122 405.343 0.583859C413.009 0.851595 420.462 3.85848 425.799 8.8425C431.135 13.8265 434.502 20.973 435.052 28.4285C435.624 36.1928 433.147 43.2776 428.107 48.3851L420.59 55.9436ZM379.424 15.5977L420.547 54.193L427.154 47.5407C431.961 42.7009 434.29 35.9457 433.761 28.5314C433.231 21.3643 430.013 14.5268 424.888 9.74869C419.764 4.97062 412.628 2.0873 405.28 1.84016C397.656 1.57243 390.817 4.10563 386.031 8.94548L379.424 15.5977Z" fill="#FFCF2D"/>
<path d="M427.599 48.5911C427.43 48.5911 427.281 48.5293 427.154 48.4264L385.1 8.9661C384.845 8.71896 384.845 8.34824 385.078 8.1011C385.332 7.85396 385.735 7.85396 385.968 8.0805L428.022 47.5408C428.277 47.7879 428.277 48.1586 428.044 48.4058C427.938 48.5293 427.768 48.5911 427.599 48.5911Z" fill="#FFCF2D"/>
<path d="M508.828 276.064C508.743 276.064 508.659 276.044 508.574 276.003C508.256 275.858 508.108 275.488 508.256 275.179L567.23 147.242L451.929 10.7374V10.7168C449.748 7.83347 446.551 5.97991 442.909 5.46504C439.266 4.95016 435.645 5.87694 432.723 8.06002L428.022 11.5612C427.747 11.7671 427.345 11.726 427.133 11.4376C426.921 11.1699 426.963 10.7786 427.26 10.5726L431.961 7.07145C435.158 4.70301 439.118 3.69386 443.099 4.24992C447.08 4.80599 450.574 6.82431 452.946 9.97537L568.713 147.056L568.543 147.407L509.4 275.694C509.294 275.92 509.061 276.064 508.828 276.064Z" fill="#3FB1B5"/>
<path d="M566.087 154.141C569.665 154.141 572.566 151.32 572.566 147.839C572.566 144.359 569.665 141.537 566.087 141.537C562.508 141.537 559.607 144.359 559.607 147.839C559.607 151.32 562.508 154.141 566.087 154.141Z" fill="white"/>
<path d="M566.087 154.759C562.169 154.759 558.972 151.649 558.972 147.839C558.972 144.029 562.169 140.919 566.087 140.919C570.004 140.919 573.202 144.029 573.202 147.839C573.202 151.649 570.004 154.759 566.087 154.759ZM566.087 142.155C562.868 142.155 560.242 144.708 560.242 147.839C560.242 150.969 562.868 153.523 566.087 153.523C569.305 153.523 571.931 150.969 571.931 147.839C571.931 144.708 569.305 142.155 566.087 142.155Z" fill="#FFCF2D"/>
<path d="M492.396 261.112H523.969C533.053 261.112 540.401 268.279 540.401 277.094V277.547H475.942V277.094C475.964 268.279 483.311 261.112 492.396 261.112Z" fill="white"/>
<path d="M541.036 278.165H475.307V277.094C475.328 267.95 482.994 260.494 492.396 260.494H523.969C533.371 260.494 541.036 267.95 541.036 277.094V278.165ZM476.578 276.929H539.766C539.681 268.526 532.629 261.73 523.969 261.73H492.396C483.756 261.73 476.684 268.526 476.578 276.929Z" fill="#FFCF2D"/>
<path d="M339.444 230.775H139.568C132.051 230.775 125.974 224.865 125.974 217.553V81.5844C125.974 74.2731 132.051 68.3623 139.568 68.3623H339.444C346.962 68.3623 353.039 74.2731 353.039 81.5844V217.533C353.06 224.844 346.962 230.775 339.444 230.775Z" fill="white"/>
<path d="M339.444 231.393H139.568C131.712 231.393 125.338 225.194 125.338 217.553V81.5841C125.338 73.9433 131.712 67.7441 139.568 67.7441H339.444C347.301 67.7441 353.674 73.9433 353.674 81.5841V217.532C353.696 221.219 352.213 224.7 349.524 227.315C346.835 229.951 343.256 231.393 339.444 231.393ZM139.568 68.9798C132.432 68.9798 126.609 74.6435 126.609 81.5841V217.553C126.609 224.494 132.432 230.157 139.568 230.157H339.444C342.917 230.157 346.178 228.839 348.635 226.45C351.07 224.061 352.425 220.889 352.404 217.532V81.5841C352.404 74.6435 346.581 68.9798 339.444 68.9798H139.568Z" fill="#3FB1B5"/>
<path d="M339.572 218.129H141.623C138.679 218.129 136.308 215.802 136.308 212.96V82.8813C136.308 80.0186 138.7 77.7119 141.623 77.7119H339.572C342.515 77.7119 344.887 80.0392 344.887 82.8813V212.939C344.908 215.802 342.515 218.129 339.572 218.129Z" fill="#66B0F0"/>
<path d="M339.572 218.747H141.623C138.34 218.747 135.672 216.152 135.672 212.96V82.881C135.672 79.6887 138.34 77.0938 141.623 77.0938H339.572C342.854 77.0938 345.522 79.6887 345.522 82.881V212.939C345.543 214.484 344.929 215.946 343.807 217.038C342.663 218.129 341.181 218.747 339.572 218.747ZM141.623 78.3295C139.039 78.3295 136.943 80.3684 136.943 82.881V212.96C136.943 215.472 139.039 217.511 141.623 217.511H339.572C340.821 217.511 342.007 217.038 342.896 216.173C343.786 215.308 344.252 214.175 344.252 212.96V82.881C344.252 80.3684 342.155 78.3295 339.572 78.3295H141.623Z" fill="#66B0F0"/>
<path d="M148.716 90.4818H145.582C144.206 90.4818 143.083 89.3902 143.083 88.0515V85.0035C143.083 83.6648 144.206 82.5732 145.582 82.5732H148.716C150.093 82.5732 151.215 83.6648 151.215 85.0035V88.0515C151.194 89.4108 150.093 90.4818 148.716 90.4818ZM145.582 83.809C144.905 83.809 144.354 84.3444 144.354 85.0035V88.0515C144.354 88.7106 144.905 89.2461 145.582 89.2461H148.716C149.394 89.2461 149.923 88.7106 149.944 88.031V85.0035C149.944 84.3444 149.394 83.809 148.716 83.809H145.582Z" fill="white"/>
<path d="M162.967 90.4818H159.833C158.457 90.4818 157.334 89.3902 157.334 88.0515V85.0035C157.334 83.6648 158.457 82.5732 159.833 82.5732H162.967C164.344 82.5732 165.466 83.6648 165.466 85.0035V88.0515C165.466 89.3902 164.344 90.4818 162.967 90.4818ZM159.833 83.809C159.156 83.809 158.605 84.3444 158.605 85.0035V88.0515C158.605 88.7106 159.156 89.2461 159.833 89.2461H162.967C163.645 89.2461 164.195 88.7106 164.195 88.0515V85.0035C164.195 84.3444 163.645 83.809 162.967 83.809H159.833Z" fill="white"/>
<path d="M177.219 90.4818H174.085C172.708 90.4818 171.586 89.3902 171.586 88.0515V85.0035C171.586 83.6648 172.708 82.5732 174.085 82.5732H177.219C178.595 82.5732 179.717 83.6648 179.717 85.0035V88.0515C179.717 89.3902 178.595 90.4818 177.219 90.4818ZM174.085 83.809C173.407 83.809 172.856 84.3444 172.856 85.0035V88.0515C172.856 88.7106 173.407 89.2461 174.085 89.2461H177.219C177.917 89.2461 178.447 88.7312 178.447 88.0515V85.0035C178.447 84.3444 177.896 83.809 177.219 83.809H174.085Z" fill="white"/>
<path d="M281.699 277.135H204.112L219.337 230.775H266.453L281.699 277.135Z" fill="white"/>
<path d="M282.567 277.753H203.243L218.871 230.157H266.918L282.567 277.753ZM204.98 276.517H280.83L265.986 231.393H219.802L204.98 276.517Z" fill="#3FB1B5"/>
<path d="M210.21 258.579L219.337 230.775H266.452L210.21 258.579Z" fill="#3FB1B5"/>
<path d="M328.052 120.983H290.338C286.463 120.983 283.308 117.914 283.308 114.145V90.4606C283.308 86.6917 286.463 83.623 290.338 83.623H328.052C331.927 83.623 335.082 86.6917 335.082 90.4606V114.145C335.082 117.914 331.927 120.983 328.052 120.983ZM290.338 84.8588C287.162 84.8588 284.579 87.3714 284.579 90.4606V114.145C284.579 117.234 287.162 119.747 290.338 119.747H328.052C331.228 119.747 333.812 117.234 333.812 114.145V90.4606C333.812 87.3714 331.228 84.8588 328.052 84.8588H290.338Z" fill="white"/>
<path d="M323.499 93.3031H294.722C294.362 93.3031 294.086 93.0354 294.086 92.6852C294.086 92.3351 294.362 92.0674 294.722 92.0674H323.499C323.859 92.0674 324.134 92.3351 324.134 92.6852C324.134 93.0354 323.859 93.3031 323.499 93.3031Z" fill="white"/>
<path d="M323.499 99.6878H294.722C294.362 99.6878 294.086 99.4201 294.086 99.07C294.086 98.7199 294.362 98.4521 294.722 98.4521H323.499C323.859 98.4521 324.134 98.7199 324.134 99.07C324.134 99.4201 323.859 99.6878 323.499 99.6878Z" fill="white"/>
<path d="M323.499 106.072H294.722C294.362 106.072 294.086 105.804 294.086 105.454C294.086 105.104 294.362 104.836 294.722 104.836H323.499C323.859 104.836 324.134 105.104 324.134 105.454C324.134 105.804 323.859 106.072 323.499 106.072Z" fill="white"/>
<path d="M323.499 112.456H294.722C294.362 112.456 294.086 112.189 294.086 111.839C294.086 111.488 294.362 111.221 294.722 111.221H323.499C323.859 111.221 324.134 111.488 324.134 111.839C324.134 112.189 323.859 112.456 323.499 112.456Z" fill="white"/>
<path d="M338.47 218.13H188.569L179.781 230.384C169.849 244.224 148.864 244.43 138.658 230.775L85.126 159.166C87.3706 161.884 97.6407 158.857 107.424 152.596C117.355 146.232 123.771 138.221 121.76 135.255L158.88 181.264L170.252 161.74C173.365 156.571 178.531 152.864 184.545 151.504L223.233 143.534H256.584L293.345 151.422C299.74 152.843 305.161 156.9 308.232 162.523L338.47 218.13Z" fill="white"/>
<path d="M159.071 241.506C150.707 241.506 143.083 237.737 138.149 231.126L84.6177 159.517L85.6341 158.775C87.434 160.938 96.9842 158.549 107.085 152.082C111.786 149.075 115.873 145.594 118.583 142.258C121.04 139.251 122.035 136.759 121.23 135.585L122.268 134.864L158.796 180.153L169.701 161.432C172.899 156.118 178.256 152.288 184.397 150.908L223.169 142.917H256.648L256.711 142.938L293.472 150.825C300.037 152.288 305.627 156.448 308.782 162.235L339.508 218.748H188.886L180.289 230.735C175.44 237.49 167.795 241.423 159.304 241.506C159.24 241.506 159.156 241.506 159.071 241.506ZM87.074 160.711L139.187 230.405C143.93 236.748 151.257 240.352 159.325 240.27C167.393 240.188 174.656 236.46 179.272 230.034L188.251 217.512H337.433L307.681 162.812C304.695 157.334 299.422 153.4 293.218 152.02L256.521 144.153H223.296L184.672 152.102C178.87 153.42 173.809 157.045 170.802 162.05L158.965 182.377L122.67 137.397C122.374 138.942 121.336 140.878 119.557 143.041C116.762 146.459 112.569 150.043 107.763 153.112C101.05 157.395 92.982 160.773 88.1752 160.773C87.794 160.773 87.4128 160.752 87.074 160.711Z" fill="#3FB1B5"/>
<path d="M297.327 217.904C297.094 217.904 296.882 217.78 296.755 217.574L286.104 197.123C285.955 196.814 286.061 196.444 286.379 196.299C286.696 196.155 287.078 196.258 287.226 196.567L297.877 217.018C298.025 217.327 297.919 217.698 297.602 217.842C297.517 217.883 297.432 217.904 297.327 217.904Z" fill="#3FB1B5"/>
<path d="M187.722 219.819C187.616 219.819 187.531 219.799 187.425 219.757C187.108 219.613 186.981 219.222 187.15 218.934L197.695 198.689C197.844 198.38 198.246 198.256 198.542 198.421C198.86 198.565 198.987 198.956 198.818 199.245L188.272 219.49C188.166 219.696 187.955 219.819 187.722 219.819Z" fill="#3FB1B5"/>
<path d="M168.6 194.076C168.409 194.076 168.219 193.993 168.092 193.829L143.93 163.78C143.719 163.513 143.761 163.121 144.036 162.915C144.311 162.709 144.714 162.751 144.926 163.018L169.087 193.067C169.299 193.334 169.256 193.726 168.981 193.932C168.875 194.035 168.727 194.076 168.6 194.076Z" fill="#3FB1B5"/>
<path d="M252.879 164.831L243.583 153.812C243.35 153.545 243.392 153.153 243.668 152.947C243.943 152.721 244.345 152.762 244.557 153.03L253.048 163.06L272.466 147.037C272.742 146.81 273.144 146.851 273.356 147.098C273.589 147.366 273.546 147.757 273.292 147.963L252.879 164.831Z" fill="#3FB1B5"/>
<path d="M228.739 165.222L206.356 147.984C206.081 147.778 206.038 147.387 206.25 147.119C206.462 146.851 206.864 146.81 207.139 147.016L228.506 163.472L236.743 153.236C236.955 152.968 237.357 152.927 237.632 153.133C237.908 153.339 237.95 153.73 237.738 153.998L228.739 165.222Z" fill="#3FB1B5"/>
<path d="M95.3114 170.288C93.2997 170.288 92.2409 169.691 91.7116 169.032C91.4998 168.764 91.5422 168.373 91.8174 168.167C92.0927 167.961 92.495 168.002 92.7068 168.27C93.5962 169.361 96.4972 169.299 100.457 168.146C104.671 166.91 109.753 164.48 114.369 161.494C119.092 158.446 123.2 154.924 125.931 151.546C128.409 148.498 129.404 145.986 128.599 144.791C128.409 144.503 128.494 144.132 128.79 143.926C129.086 143.741 129.468 143.823 129.679 144.111C130.823 145.821 129.849 148.725 126.948 152.308C124.131 155.768 119.917 159.393 115.089 162.503C110.304 165.592 105.243 168.022 100.838 169.32C98.4454 170.02 96.6455 170.288 95.3114 170.288Z" fill="#3FB1B5"/>
<path d="M122.48 150.29C120.807 150.29 119.452 148.972 119.452 147.345C119.452 145.718 120.807 144.399 122.48 144.399C124.153 144.399 125.508 145.718 125.508 147.345C125.508 148.972 124.153 150.29 122.48 150.29ZM122.48 145.635C121.506 145.635 120.722 146.397 120.722 147.345C120.722 148.292 121.506 149.054 122.48 149.054C123.454 149.054 124.237 148.292 124.237 147.345C124.237 146.397 123.454 145.635 122.48 145.635Z" fill="#3FB1B5"/>
<path d="M240.639 164.913C238.966 164.913 237.611 163.595 237.611 161.968C237.611 160.341 238.966 159.022 240.639 159.022C242.312 159.022 243.667 160.341 243.667 161.968C243.667 163.595 242.312 164.913 240.639 164.913ZM240.639 160.258C239.665 160.258 238.881 161.02 238.881 161.968C238.881 162.915 239.665 163.677 240.639 163.677C241.613 163.677 242.396 162.915 242.396 161.968C242.396 161.02 241.613 160.258 240.639 160.258Z" fill="#3FB1B5"/>
<path d="M240.639 183.654C238.966 183.654 237.611 182.336 237.611 180.709C237.611 179.082 238.966 177.764 240.639 177.764C242.312 177.764 243.667 179.082 243.667 180.709C243.667 182.336 242.312 183.654 240.639 183.654ZM240.639 178.999C239.665 178.999 238.881 179.761 238.881 180.709C238.881 181.656 239.665 182.418 240.639 182.418C241.613 182.418 242.396 181.656 242.396 180.709C242.396 179.761 241.613 178.999 240.639 178.999Z" fill="#3FB1B5"/>
<path d="M179.019 231.374L188.569 218.131V231.374H179.019Z" fill="#3FB1B5"/>
<path d="M107.191 151.979C97.4075 158.239 87.1373 161.267 84.8927 158.548C84.8504 158.507 84.8292 158.466 84.7868 158.404C84.321 157.725 84.3633 156.798 84.7868 155.665C86.2479 151.937 92.283 146.171 99.9485 141.269C106.047 137.356 112.061 134.637 116.233 133.793C118.647 133.319 120.446 133.464 121.315 134.37L121.526 134.617C123.517 137.583 117.122 145.615 107.191 151.979Z" fill="#FE5244"/>
<path d="M107.191 151.979C101.622 155.542 95.883 158.075 91.5632 159.063L72.2299 132.537C69.5406 128.83 70.43 123.702 74.2628 121.086L91.6691 109.182L81.8013 92.8501C80.3613 90.4816 81.1872 87.4129 83.6435 86.0331C84.4482 85.58 85.3164 85.374 86.1846 85.374C87.8575 85.374 89.5092 86.1772 90.4832 87.6601L121.336 134.329L121.548 134.658C123.517 137.583 117.122 145.615 107.191 151.979Z" fill="#E57281"/>
<path d="M97.1322 132.845C96.8569 132.845 96.5816 132.825 96.3063 132.763C95.2476 132.557 94.337 131.939 93.7653 131.074L83.5798 116.246C83.3893 115.957 83.4739 115.587 83.7492 115.381C84.0457 115.195 84.4269 115.278 84.6386 115.545L94.824 130.374C95.2264 130.971 95.8405 131.383 96.5604 131.527C97.2804 131.671 98.0216 131.527 98.6356 131.136L101.028 129.612C102.299 128.809 102.659 127.161 101.854 125.925L91.076 109.676C90.8854 109.387 90.9701 109.017 91.2665 108.831C91.563 108.646 91.9442 108.728 92.1348 109.017L102.913 125.266C104.099 127.079 103.548 129.488 101.706 130.642L99.3132 132.166C98.678 132.619 97.9157 132.845 97.1322 132.845Z" fill="#9A3B82"/>
<path d="M89.234 137.768C87.9211 137.768 86.6294 137.15 85.8459 136.017C85.6553 135.729 85.74 135.358 86.0365 135.152C86.3329 134.967 86.7141 135.049 86.9258 135.338C87.7517 136.553 89.4457 136.903 90.7163 136.12L92.8974 134.782C93.5115 134.39 93.9561 133.793 94.1044 133.072C94.2526 132.351 94.1256 131.631 93.7232 131.033C93.5326 130.745 93.6173 130.374 93.9138 130.168C94.2102 129.983 94.5914 130.065 94.8032 130.354C95.3961 131.239 95.6078 132.29 95.3749 133.34C95.142 134.37 94.5067 135.255 93.5961 135.832L91.4151 137.171C90.7375 137.562 89.9751 137.768 89.234 137.768Z" fill="#9A3B82"/>
<path d="M81.4839 142.381C80.2133 142.381 78.964 141.805 78.1805 140.713L72.3996 132.784C72.1878 132.496 72.2725 132.125 72.5478 131.919C72.8231 131.713 73.2254 131.796 73.4372 132.063L79.2181 139.992C80.0863 141.166 81.7168 141.475 82.945 140.713L82.9873 140.693L84.999 139.601C85.6343 139.21 86.0578 138.612 86.2272 137.912C86.3966 137.191 86.2484 136.471 85.846 135.853L75.8723 121.436C75.6818 121.148 75.7453 120.777 76.0418 120.571C76.3382 120.386 76.7194 120.448 76.9311 120.736L86.9048 135.153C87.5189 136.059 87.7095 137.13 87.4766 138.159C87.2436 139.189 86.6084 140.075 85.6766 140.631L85.6554 140.651L83.6438 141.743C82.945 142.196 82.2038 142.381 81.4839 142.381Z" fill="#9A3B82"/>
<path d="M114.136 123.455L109.075 115.814C107.402 113.281 103.908 112.58 101.346 114.269L88.7891 122.548C88.7891 122.548 92.4313 128.912 101.283 123.867L104.247 128.459C98.191 132.187 96.4546 140.034 100.393 145.862L114.136 123.455Z" fill="#E57281"/>
<path d="M100.393 146.479C100.181 146.479 99.9908 146.376 99.8637 146.191C97.8732 143.225 97.1745 139.683 97.9579 136.223C98.6779 132.969 100.605 130.168 103.379 128.273L101.071 124.69C98.0215 126.317 95.2475 126.791 92.7911 126.152C89.6783 125.328 88.2807 122.939 88.2172 122.857L87.9419 122.363L100.308 113.96C101.706 113.054 103.358 112.724 104.988 113.054C106.619 113.383 108.016 114.31 108.927 115.69L113.988 123.331C114.178 123.619 114.094 123.99 113.797 124.175C113.501 124.36 113.12 124.278 112.929 123.99L107.868 116.349C107.148 115.257 106.047 114.516 104.734 114.269C103.442 114.001 102.108 114.269 101.028 114.99L89.6571 122.713C90.1653 123.351 91.3088 124.504 93.1299 124.978C95.3745 125.575 98.0003 125.019 100.944 123.351L101.473 123.042L105.094 128.665L104.565 128.994C101.791 130.704 99.8637 133.381 99.1649 136.511C98.4662 139.642 99.0802 142.855 100.901 145.532C101.092 145.82 101.007 146.191 100.711 146.397C100.626 146.438 100.52 146.479 100.393 146.479Z" fill="#9A3B82"/>
<path d="M107.191 151.979C101.622 155.542 95.883 158.076 91.5632 159.064L86.7563 152.474C89.4456 149.055 94.2525 144.936 99.9487 141.291C106.047 137.377 112.061 134.659 116.233 133.815C118.647 133.341 120.447 133.485 121.315 134.391L121.527 134.638C121.548 134.68 121.569 134.7 121.59 134.741C121.611 134.762 121.611 134.783 121.632 134.824C121.654 134.865 121.675 134.885 121.696 134.927C123.136 138.078 116.804 145.801 107.191 151.979Z" fill="#9A3B82"/>
<path d="M256.563 125.411V143.514C256.563 148.766 249.067 153.009 239.856 153.009C230.623 153.009 223.148 148.766 223.148 143.514V125.411H256.563Z" fill="#E57281"/>
<path d="M228.039 150.228C225.011 148.519 223.126 146.13 223.126 143.514V125.411H256.563V130.436C256.563 135.647 253.302 140.322 248.347 142.279L228.039 150.228Z" fill="#9A3B82"/>
<path d="M265.88 124.341V124.65C265.88 127.78 263.275 130.313 260.057 130.313H256.224C254.932 135.38 250.231 139.148 244.598 139.148H235.112C229.5 139.148 224.778 135.4 223.508 130.313H219.675C216.456 130.313 213.852 127.78 213.852 124.65V124.341C213.852 121.21 216.456 118.677 219.675 118.677H223.148V114.208C223.148 109.43 226.769 105.475 231.491 104.816C232.528 106.505 235.662 110.542 242.057 110.315C245.064 110.212 247.86 109.656 250.168 108.997C252.942 108.215 255.716 109.862 256.414 112.437C256.52 113.013 256.584 113.59 256.584 114.187V118.656H260.057C263.254 118.656 265.88 121.21 265.88 124.341Z" fill="#E57281"/>
<path d="M259.231 118.656H256.562V113.693C256.562 113.26 256.499 112.828 256.393 112.437C255.694 109.862 252.92 108.215 250.146 108.997C247.838 109.656 245.064 110.212 242.036 110.315C235.641 110.542 232.507 106.505 231.469 104.816C226.747 105.476 223.126 109.43 223.126 114.208V118.677H219.802C219.802 118.677 215.99 105.27 218.849 101.48C221.665 97.7523 225.053 99.3793 225.053 99.3793C225.053 99.3793 223.02 88.2168 234.37 88.4227C245.699 88.6287 260.438 101.418 261.518 103.766C263.212 107.37 259.231 118.656 259.231 118.656Z" fill="#9A3B82"/>
<path d="M257.855 125.906C257.558 125.906 257.325 125.679 257.325 125.391C257.325 122.92 259.4 120.901 261.941 120.901C262.238 120.901 262.471 121.128 262.471 121.416C262.471 121.705 262.238 121.931 261.941 121.931C259.972 121.931 258.384 123.476 258.384 125.391C258.384 125.679 258.151 125.906 257.855 125.906Z" fill="#9A3B82"/>
<path d="M221.898 125.906C221.602 125.906 221.369 125.679 221.369 125.391C221.369 123.476 219.78 121.931 217.811 121.931C217.515 121.931 217.282 121.705 217.282 121.416C217.282 121.128 217.515 120.901 217.811 120.901C220.352 120.901 222.427 122.92 222.427 125.391C222.427 125.679 222.194 125.906 221.898 125.906Z" fill="#9A3B82"/>
<path d="M251.226 114.723C251.121 114.723 251.015 114.681 250.909 114.62C250.803 114.537 248.071 112.663 244.577 114.084C244.302 114.187 244.006 114.064 243.878 113.796C243.773 113.528 243.9 113.24 244.175 113.116C248.241 111.489 251.396 113.672 251.523 113.775C251.756 113.94 251.819 114.27 251.629 114.496C251.544 114.64 251.396 114.723 251.226 114.723Z" fill="#9A3B82"/>
<path d="M228.272 114.724C228.103 114.724 227.955 114.641 227.849 114.518C227.679 114.291 227.722 113.961 227.955 113.797C228.082 113.694 231.258 111.511 235.303 113.138C235.578 113.241 235.705 113.55 235.599 113.817C235.493 114.085 235.175 114.209 234.9 114.106C231.385 112.685 228.611 114.621 228.569 114.641C228.484 114.682 228.378 114.724 228.272 114.724Z" fill="#9A3B82"/>
<path d="M241.189 132.064C240.363 132.064 239.41 131.899 238.33 131.508C238.055 131.405 237.907 131.116 238.013 130.849C238.119 130.581 238.415 130.437 238.69 130.54C243.137 132.146 244.598 129.304 244.662 129.18C244.789 128.933 245.107 128.81 245.361 128.933C245.615 129.057 245.742 129.366 245.615 129.613C245.594 129.654 244.387 132.064 241.189 132.064Z" fill="#9A3B82"/>
<path d="M239.686 128.191C239.199 128.191 238.67 128.191 238.225 128.15C237.928 128.13 237.717 127.883 237.738 127.594C237.759 127.306 238.013 127.1 238.31 127.121C239.559 127.203 241.486 127.121 241.507 127.121C241.804 127.1 242.036 127.326 242.058 127.615C242.079 127.903 241.846 128.13 241.549 128.15C241.507 128.15 240.639 128.191 239.686 128.191Z" fill="#9A3B82"/>
<path d="M247.817 122.796C248.402 122.796 248.876 122.021 248.876 121.066C248.876 120.11 248.402 119.336 247.817 119.336C247.232 119.336 246.758 120.11 246.758 121.066C246.758 122.021 247.232 122.796 247.817 122.796Z" fill="#9A3B82"/>
<path d="M232.634 122.796C233.219 122.796 233.693 122.021 233.693 121.066C233.693 120.11 233.219 119.336 232.634 119.336C232.049 119.336 231.575 120.11 231.575 121.066C231.575 122.021 232.049 122.796 232.634 122.796Z" fill="#9A3B82"/>
<path d="M235.154 127.409H228.484C226.917 127.409 225.625 126.153 225.625 124.629V118.142C225.625 116.618 226.917 115.361 228.484 115.361H235.154C236.721 115.361 238.013 116.618 238.013 118.142V124.629C238.034 125.35 237.737 126.05 237.208 126.565C236.657 127.121 235.937 127.409 235.154 127.409ZM228.484 116.391C227.488 116.391 226.684 117.174 226.684 118.142V124.629C226.684 125.597 227.488 126.38 228.484 126.38H235.154C235.641 126.38 236.107 126.194 236.446 125.844C236.785 125.515 236.954 125.082 236.954 124.629V118.142C236.954 117.174 236.149 116.391 235.154 116.391H228.484Z" fill="white"/>
<path d="M251.48 127.409H244.81C243.243 127.409 241.951 126.153 241.951 124.629V118.142C241.951 116.618 243.243 115.361 244.81 115.361H251.48C253.047 115.361 254.339 116.618 254.339 118.142V124.629C254.339 126.153 253.047 127.409 251.48 127.409ZM244.81 116.391C243.815 116.391 243.01 117.174 243.01 118.142V124.629C243.01 125.597 243.815 126.38 244.81 126.38H251.48C252.475 126.38 253.28 125.597 253.28 124.629V118.142C253.28 117.174 252.475 116.391 251.48 116.391H244.81Z" fill="white"/>
<path d="M242.481 119.646H237.504V120.675H242.481V119.646Z" fill="white"/>
<path d="M253.239 210.756H230.094C227.637 210.756 225.647 208.82 225.647 206.431V194.466C225.647 192.077 227.637 190.141 230.094 190.141H253.239C255.695 190.141 257.686 192.077 257.686 194.466V206.431C257.686 208.82 255.695 210.756 253.239 210.756ZM230.094 191.376C228.336 191.376 226.918 192.756 226.918 194.466V206.431C226.918 208.141 228.336 209.521 230.094 209.521H253.239C254.996 209.521 256.415 208.141 256.415 206.431V194.466C256.415 192.756 254.996 191.376 253.239 191.376H230.094Z" fill="#66B0F0"/>
<path d="M242.248 205.32H234.413C233.164 205.32 232.147 204.331 232.147 203.116V197.782C232.147 196.567 233.164 195.578 234.413 195.578H242.248C243.498 195.578 244.514 196.567 244.514 197.782V203.116C244.514 204.331 243.498 205.32 242.248 205.32Z" fill="#66B0F0"/>
<path d="M249.872 205.175L247.458 203.61C246.801 203.177 246.399 202.436 246.399 201.633V199.285C246.399 198.482 246.801 197.74 247.458 197.308L249.872 195.743C250.443 195.372 251.185 195.784 251.185 196.484V204.454C251.206 205.134 250.443 205.546 249.872 205.175Z" fill="#66B0F0"/>
<path d="M562.783 278.165H0.635267C0.275282 278.165 0 277.898 0 277.548C0 277.197 0.275282 276.93 0.635267 276.93H562.783C563.143 276.93 563.418 277.197 563.418 277.548C563.418 277.898 563.143 278.165 562.783 278.165Z" fill="#3FB1B5"/>
<path d="M181.623 281.152V535.42H166.864V487.021C166.864 482.511 163.094 478.845 158.457 478.845H52.8121C48.1746 478.845 44.4054 482.511 44.4054 487.021V535.42H29.646V281.152H181.623Z" fill="white"/>
<path d="M182.258 536.037H166.228V487.021C166.228 482.861 162.734 479.463 158.457 479.463H52.8121C48.5346 479.463 45.0407 482.861 45.0407 487.021V536.037H29.0107V280.534H182.258V536.037ZM167.499 534.802H180.988V281.77H30.2813V534.802H43.7701V487.021C43.7701 482.181 47.8358 478.227 52.8121 478.227H158.457C163.433 478.227 167.499 482.181 167.499 487.021V534.802Z" fill="#3FB1B5"/>
<path d="M182.068 281.152V348.622L29.646 470.689L29.6672 281.152H182.068Z" fill="#D0F0E4"/>
<path d="M158.901 354.985H52.3883C47.645 354.985 43.791 351.237 43.791 346.624V300.511C43.791 295.898 47.645 292.149 52.3883 292.149H158.901C163.645 292.149 167.499 295.898 167.499 300.511V346.624C167.499 351.237 163.645 354.985 158.901 354.985ZM52.3883 293.385C48.3438 293.385 45.0615 296.577 45.0615 300.511V346.624C45.0615 350.557 48.3438 353.749 52.3883 353.749H158.901C162.946 353.749 166.228 350.557 166.228 346.624V300.511C166.228 296.577 162.946 293.385 158.901 293.385H52.3883Z" fill="#3FB1B5"/>
<path d="M132.728 389.296H80.2978L78.1167 374.694H130.569L132.728 389.296Z" fill="#FFCF2D"/>
<path d="M160.702 366.272C154.158 366.272 148.864 371.421 148.864 377.785V389.298H104.248V377.785C104.248 371.421 109.541 366.272 116.085 366.272H160.702Z" fill="white"/>
<path d="M149.5 389.915H103.612V377.785C103.612 371.091 109.203 365.654 116.085 365.654H160.702V366.89C154.518 366.89 149.5 371.771 149.5 377.785V389.915ZM104.883 388.68H148.229V377.785C148.229 373.007 151.088 368.867 155.217 366.89H116.085C109.901 366.89 104.883 371.771 104.883 377.785V388.68Z" fill="#3FB1B5"/>
<path d="M171.819 374.696H127.202C125.826 369.835 121.231 366.272 115.789 366.272H160.405C165.848 366.272 170.422 369.835 171.819 374.696Z" fill="white"/>
<path d="M172.666 375.313H126.737L126.61 374.86C125.276 370.165 120.829 366.89 115.81 366.89V365.654H160.427C165.996 365.654 170.951 369.3 172.455 374.531L172.666 375.313ZM127.668 374.078H170.951C169.363 369.815 165.128 366.89 160.406 366.89H121.273C124.259 368.311 126.631 370.885 127.668 374.078Z" fill="#3FB1B5"/>
<path d="M158.901 451.514H52.3883C47.645 451.514 43.791 447.766 43.791 443.153V397.04C43.791 392.427 47.645 388.679 52.3883 388.679H158.901C163.645 388.679 167.499 392.427 167.499 397.04V443.153C167.499 447.766 163.645 451.514 158.901 451.514ZM52.3883 389.914C48.3438 389.914 45.0615 393.107 45.0615 397.04V443.153C45.0615 447.086 48.3438 450.279 52.3883 450.279H158.901C162.946 450.279 166.228 447.086 166.228 443.153V397.04C166.228 393.107 162.946 389.914 158.901 389.914H52.3883Z" fill="#3FB1B5"/>
<path d="M127.477 323.269C127.117 323.269 126.842 323.001 126.842 322.651C126.842 319.315 124.068 316.617 120.637 316.617H90.6737C87.2433 316.617 84.4693 319.315 84.4693 322.651C84.4693 323.001 84.194 323.269 83.834 323.269C83.474 323.269 83.1987 323.001 83.1987 322.651C83.1987 318.635 86.5445 315.381 90.6737 315.381H120.637C124.766 315.381 128.112 318.635 128.112 322.651C128.112 323.001 127.837 323.269 127.477 323.269Z" fill="#3FB1B5"/>
<path d="M127.477 419.798C127.117 419.798 126.842 419.53 126.842 419.18C126.842 415.844 124.068 413.146 120.637 413.146H90.6737C87.2433 413.146 84.4693 415.844 84.4693 419.18C84.4693 419.53 84.194 419.798 83.834 419.798C83.474 419.798 83.1987 419.53 83.1987 419.18C83.1987 415.164 86.5445 411.91 90.6737 411.91H120.637C124.766 411.91 128.112 415.164 128.112 419.18C128.112 419.53 127.837 419.798 127.477 419.798Z" fill="#3FB1B5"/>
<path d="M540.4 281.152H524.667V535.976H540.4V281.152Z" fill="white"/>
<path d="M541.035 536.593H524.031V280.534H541.035V536.593ZM525.302 535.358H539.765V281.77H525.302V535.358Z" fill="#3FB1B5"/>
<path d="M601.365 536.593H273.017C272.657 536.593 272.381 536.325 272.381 535.975C272.381 535.625 272.657 535.357 273.017 535.357H601.365C601.725 535.357 602 535.625 602 535.975C602 536.325 601.725 536.593 601.365 536.593Z" fill="#3FB1B5"/>
<path d="M74.3267 242.596H64.8189C64.8189 242.596 51.2454 187.587 39.3235 185.795C27.4017 184.003 26.7876 205.175 26.7876 205.175C26.7876 205.175 26.9994 172.985 56.7934 177.392C86.6086 181.799 74.3267 242.596 74.3267 242.596Z" fill="white"/>
<path d="M74.8564 243.214H64.3322L64.2051 242.741C64.1628 242.597 60.7535 228.839 55.9467 215.061C47.9846 192.262 42.4578 186.887 39.2391 186.413C37.0369 186.084 35.0887 186.578 33.4794 187.896C27.8679 192.427 27.4444 205.072 27.4444 205.196L26.1738 205.175C26.1738 205.011 26.2162 201.242 27.4655 196.422C28.6302 191.953 31.0866 185.713 36.2322 181.429C41.4626 177.084 48.4082 175.518 56.9207 176.795C62.4264 177.598 66.8944 180.358 70.219 184.951C75.5552 192.345 77.9904 204.31 77.4187 220.56C76.9952 232.608 75.0047 242.617 74.9835 242.72L74.8564 243.214ZM65.3274 241.979H73.8188C74.2212 239.816 75.7882 230.919 76.1481 220.498C76.5293 209.521 75.6188 194.589 69.1814 185.672C66.0686 181.347 61.8758 178.772 56.7301 178.031C48.6199 176.836 41.992 178.299 37.058 182.397C35.5758 183.633 34.3052 185.054 33.2464 186.557C35.0464 185.322 37.1216 184.889 39.4509 185.239C44.6389 186.022 50.6104 195.949 57.1748 214.731C61.4735 227.068 64.671 239.425 65.3274 241.979Z" fill="#3FB1B5"/>
<path d="M70.1546 242.391C69.8158 242.391 69.5193 242.123 69.5193 241.773C68.8205 200.768 59.8844 186.29 52.5153 181.388C46.925 177.661 42.0334 179.35 41.9911 179.37C41.6523 179.494 41.2923 179.329 41.1652 178.999C41.0382 178.67 41.2076 178.32 41.5464 178.196C41.7793 178.114 47.0944 176.281 53.2353 180.359C57.9786 183.53 61.8538 189.338 64.7336 197.659C68.4394 208.368 70.4722 223.197 70.7898 241.753C70.7898 242.103 70.5146 242.391 70.1546 242.391Z" fill="#3FB1B5"/>
<path d="M100.224 241.772H55.5649V277.134H100.224V241.772Z" fill="#FE5244"/>
<path d="M109.626 259.464C106.788 260.659 103.4 260.515 100.245 259.176C97.9157 258.187 95.7135 256.56 93.9348 254.336C91.4784 251.247 89.8267 247.025 89.8267 241.773C89.8267 229.045 79.4083 221.054 75.1309 237.901C74.8344 239.075 74.5591 240.352 74.3262 241.773V241.732V241.65C74.3262 241.608 74.3262 241.547 74.3474 241.485V241.402C74.4321 240.352 74.7497 237.242 75.7238 233.494C76.4437 230.713 77.5237 227.624 79.133 224.761C79.9377 223.34 80.8694 221.981 81.9706 220.766C84.8081 217.594 88.7044 215.37 94.0194 215.37C103.803 215.37 110.96 226.574 113.692 237.736C116.084 247.437 115.11 257.137 109.626 259.464Z" fill="white"/>
<path d="M105.454 260.885C103.654 260.885 101.77 260.494 99.9911 259.732C97.4712 258.661 95.2055 256.931 93.4267 254.707C90.6527 251.226 89.1916 246.736 89.1916 241.773C89.1916 235.965 86.5658 229.416 82.6484 228.963C79.8108 228.633 77.3121 231.949 75.7451 238.045C75.4275 239.322 75.1734 240.558 74.9405 241.876L73.6699 241.773V241.649C73.6699 241.608 73.6699 241.505 73.6911 241.402V241.34C73.7758 240.187 74.1146 237.098 75.0887 233.329C75.9569 229.992 77.1215 227.006 78.5615 224.452C79.472 222.866 80.4249 221.507 81.4837 220.354C84.8083 216.626 89.0222 214.752 94.0196 214.752C104.184 214.752 111.532 226.223 114.306 237.592C115.534 242.597 115.873 247.519 115.238 251.452C114.539 255.88 112.675 258.826 109.88 260.02C108.525 260.597 107.021 260.885 105.454 260.885ZM82.2672 227.706C82.4578 227.706 82.6272 227.727 82.7966 227.747C87.0317 228.242 90.4621 234.544 90.4621 241.793C90.4621 246.489 91.8385 250.711 94.4431 253.986C96.0948 256.045 98.1912 257.652 100.499 258.64C103.527 259.917 106.767 260.02 109.372 258.929C114.115 256.91 115.619 248.281 113.078 237.921C111.659 232.093 109.139 226.718 106.005 222.784C102.469 218.356 98.3394 216.029 94.0196 216.029C89.4245 216.029 85.5282 217.779 82.4578 221.219C81.4625 222.331 80.552 223.587 79.705 225.111C78.6462 227.006 77.7356 229.127 76.9945 231.475C77.3545 230.899 77.7145 230.384 78.0956 229.931C79.5991 228.139 81.1237 227.706 82.2672 227.706Z" fill="#3FB1B5"/>
<path d="M107.36 260.473C107.043 260.473 106.767 260.247 106.725 259.917C103.633 231.681 96.5819 222.949 91.2245 220.601C86.4388 218.5 82.3943 221.239 82.3519 221.26C82.0766 221.466 81.6743 221.384 81.4625 221.116C81.2508 220.848 81.3355 220.457 81.6108 220.251C81.8013 220.127 86.2906 217.079 91.7327 219.468C95.3325 221.054 98.4665 224.638 101.029 230.157C104.247 237.056 106.577 247.024 107.974 259.773C108.017 260.102 107.763 260.411 107.403 260.452C107.403 260.473 107.381 260.473 107.36 260.473Z" fill="#3FB1B5"/>
<path d="M26.1518 205.175C26.1518 208.574 25.7495 221.569 38.4972 222.166C51.2449 222.764 52.5154 204.043 52.5154 204.043C52.5154 204.043 46.2474 187.484 39.323 185.795C27.6129 182.933 26.1518 205.175 26.1518 205.175Z" fill="#3FB1B5"/>
<path d="M89.8267 241.773H74.3262C77.9048 219.962 89.8267 228.159 89.8267 241.773Z" fill="#3FB1B5"/>
<path opacity="0.4" d="M353.06 81.5844V217.533C353.06 224.844 346.962 230.755 339.466 230.755H179.484C169.447 244.204 148.758 244.265 138.637 230.755L138.615 230.734C134.592 230.467 131.035 228.469 128.748 225.524L132.432 222.434L226.452 143.514L315.982 68.3623H339.466C346.962 68.3623 353.06 74.2937 353.06 81.5844Z" fill="white"/>
<path opacity="0.4" d="M109.626 260.082C106.81 261.318 103.4 261.132 100.245 259.794V277.135H67.2749L93.9561 254.748L100.266 249.455L105.073 245.418L114.369 237.736C117.08 248.981 115.576 257.425 109.626 260.082Z" fill="white"/>
<path d="M390.392 351.586V466.218H363.16L345.817 419.117L320.979 351.586H390.392Z" fill="#A0505A"/>
<path d="M320.979 351.586H390.392V388.389L329.237 374.014L320.979 351.586Z" fill="#73325A"/>
<path d="M391.027 466.836H362.716L344.653 417.778L346.135 418.561C346.177 418.581 349.693 420.414 356.85 421.321C363.457 422.165 374.637 422.35 390.244 418.499L391.027 418.314V466.836ZM363.605 465.6H389.757V419.9C374.299 423.627 363.203 423.401 356.575 422.556C351.768 421.939 348.591 420.929 346.919 420.27L363.605 465.6Z" fill="white"/>
<path d="M359.984 430.794C357.93 430.794 356.257 429.167 356.257 427.17C356.257 425.172 357.93 423.545 359.984 423.545C362.038 423.545 363.711 425.172 363.711 427.17C363.711 429.167 362.038 430.794 359.984 430.794ZM359.984 424.781C358.628 424.781 357.527 425.852 357.527 427.17C357.527 428.488 358.628 429.559 359.984 429.559C361.339 429.559 362.44 428.488 362.44 427.17C362.44 425.852 361.339 424.781 359.984 424.781Z" fill="white"/>
<path d="M374.723 440.495C372.669 440.495 370.996 438.868 370.996 436.87C370.996 434.872 372.669 433.245 374.723 433.245C376.777 433.245 378.449 434.872 378.449 436.87C378.449 438.868 376.777 440.495 374.723 440.495ZM374.723 434.481C373.367 434.481 372.266 435.552 372.266 436.87C372.266 438.188 373.367 439.259 374.723 439.259C376.078 439.259 377.179 438.188 377.179 436.87C377.179 435.552 376.078 434.481 374.723 434.481Z" fill="white"/>
<path d="M385.691 429.723C383.637 429.723 381.964 428.096 381.964 426.098C381.964 424.101 383.637 422.474 385.691 422.474C387.745 422.474 389.418 424.101 389.418 426.098C389.418 428.096 387.745 429.723 385.691 429.723ZM385.691 423.709C384.336 423.709 383.234 424.78 383.234 426.098C383.234 427.417 384.336 428.487 385.691 428.487C387.046 428.487 388.147 427.417 388.147 426.098C388.147 424.78 387.046 423.709 385.691 423.709Z" fill="white"/>
<path d="M381.35 451.781C379.296 451.781 377.623 450.154 377.623 448.156C377.623 446.158 379.296 444.531 381.35 444.531C383.404 444.531 385.077 446.158 385.077 448.156C385.077 450.154 383.404 451.781 381.35 451.781ZM381.35 445.767C379.995 445.767 378.894 446.838 378.894 448.156C378.894 449.474 379.995 450.545 381.35 450.545C382.705 450.545 383.806 449.474 383.806 448.156C383.806 446.838 382.705 445.767 381.35 445.767Z" fill="white"/>
<path d="M363.076 446.302C361.022 446.302 359.349 444.675 359.349 442.677C359.349 440.68 361.022 439.053 363.076 439.053C365.13 439.053 366.803 440.68 366.803 442.677C366.803 444.675 365.13 446.302 363.076 446.302ZM363.076 440.288C361.721 440.288 360.62 441.359 360.62 442.677C360.62 443.996 361.721 445.067 363.076 445.067C364.431 445.067 365.532 443.996 365.532 442.677C365.532 441.359 364.431 440.288 363.076 440.288Z" fill="white"/>
<path d="M368.116 462.779C366.062 462.779 364.389 461.152 364.389 459.154C364.389 457.156 366.062 455.529 368.116 455.529C370.17 455.529 371.842 457.156 371.842 459.154C371.842 461.152 370.17 462.779 368.116 462.779ZM368.116 456.765C366.76 456.765 365.659 457.836 365.659 459.154C365.659 460.472 366.76 461.543 368.116 461.543C369.471 461.543 370.572 460.472 370.572 459.154C370.572 457.836 369.471 456.765 368.116 456.765Z" fill="white"/>
<path d="M403.267 487.597L384.59 525.306C381.943 531.382 375.823 535.336 369.026 535.336H345.203C339.105 535.336 335.399 529.322 337.728 523.844L361.678 467.661C363.012 464.242 365.363 461.4 368.306 459.402C371.271 457.404 374.828 456.271 378.576 456.271C383.785 456.271 388.952 459.711 392.383 463.521L400.683 472.233C404.516 476.475 405.511 482.427 403.267 487.597Z" fill="#66B0F0"/>
<path d="M403.267 487.597L384.59 525.307C381.943 531.383 375.823 535.337 369.026 535.337H343.7C341.35 535.337 340.015 533.916 339.232 531.959H344.865C351.662 531.959 357.782 528.005 360.429 521.929L381.964 478.247C383.976 474.169 388.232 471.554 392.891 471.554C398.968 471.554 403.584 475.879 404.431 481.357C404.516 483.458 404.135 485.579 403.267 487.597Z" fill="white"/>
<path d="M369.026 535.954H343.7C341.349 535.954 339.634 534.677 338.639 532.185C338.554 532 338.596 531.774 338.702 531.609C338.829 531.444 339.02 531.341 339.232 531.341H344.864C351.408 531.341 357.295 527.552 359.836 521.682C359.836 521.682 359.836 521.661 359.857 521.661L381.392 477.979C383.51 473.695 388.02 470.936 392.891 470.936C399.01 470.936 404.135 475.281 405.067 481.274C405.067 481.295 405.067 481.315 405.067 481.336C405.151 483.56 404.749 485.764 403.86 487.844C403.86 487.844 403.86 487.865 403.838 487.865L385.162 525.554C382.409 531.877 376.077 535.954 369.026 535.954ZM340.227 532.577C341.032 534.039 342.154 534.719 343.7 534.719H369.026C375.569 534.719 381.456 530.929 383.997 525.06C383.997 525.06 383.997 525.039 384.018 525.039L402.695 487.35C403.5 485.455 403.881 483.457 403.796 481.418C402.949 476.064 398.375 472.171 392.891 472.171C388.507 472.171 384.442 474.663 382.536 478.515L361 522.176C358.247 528.499 351.916 532.577 344.864 532.577H340.227Z" fill="#66B0F0"/>
<path d="M398.968 470.42C396.723 469.226 394.013 468.361 391.641 468.361C387.089 468.361 382.875 470.935 380.905 474.931L358.607 520.157C355.77 526.686 349.206 530.908 341.9 530.908H337.792C337.58 530.517 337.432 530.105 337.284 529.672H341.9C348.697 529.672 354.796 525.739 357.443 519.663L357.464 519.643L379.783 474.395C381.964 469.967 386.623 467.125 391.663 467.125C393.272 467.125 395.199 467.64 396.851 468.196L398.968 470.42Z" fill="white"/>
<path d="M320.979 351.586L315.664 419.118L313.292 449.372C313.292 449.372 297.813 466.136 280.194 455.798L272.042 419.138L253.386 335.254C248.346 312.579 264.27 290.522 287.924 287.453L320.979 351.586Z" fill="#A0505A"/>
<path d="M292.116 460.596C288.326 460.596 284.154 459.67 279.877 457.157L279.644 457.013L271.216 418.253L272.232 418.562C292.285 424.411 315.282 418.603 315.515 418.541L316.383 418.315L313.927 450.464L313.779 450.628C313.609 450.793 309.755 454.933 303.636 457.857C300.565 459.299 296.584 460.596 292.116 460.596ZM280.766 456.23C287.796 460.267 295.292 460.432 303.043 456.745C308.294 454.233 311.936 450.69 312.677 449.928L314.964 419.921C313.037 420.354 308.04 421.404 301.581 421.981C294.149 422.66 283.244 422.825 272.868 420.024L280.766 456.23Z" fill="white"/>
<path d="M291.332 438.415C289.278 438.415 287.605 436.788 287.605 434.791C287.605 432.793 289.278 431.166 291.332 431.166C293.386 431.166 295.059 432.793 295.059 434.791C295.059 436.788 293.386 438.415 291.332 438.415ZM291.332 432.402C289.977 432.402 288.876 433.473 288.876 434.791C288.876 436.109 289.977 437.18 291.332 437.18C292.688 437.18 293.789 436.109 293.789 434.791C293.789 433.473 292.688 432.402 291.332 432.402Z" fill="white"/>
<path d="M310.983 433.802C308.929 433.802 307.256 432.175 307.256 430.177C307.256 428.18 308.929 426.553 310.983 426.553C313.037 426.553 314.71 428.18 314.71 430.177C314.71 432.175 313.037 433.802 310.983 433.802ZM310.983 427.788C309.628 427.788 308.527 428.859 308.527 430.177C308.527 431.496 309.628 432.566 310.983 432.566C312.339 432.566 313.44 431.496 313.44 430.177C313.44 428.859 312.339 427.788 310.983 427.788Z" fill="white"/>
<path d="M279.474 429.724C277.42 429.724 275.747 428.097 275.747 426.099C275.747 424.102 277.42 422.475 279.474 422.475C281.528 422.475 283.201 424.102 283.201 426.099C283.201 428.097 281.528 429.724 279.474 429.724ZM279.474 423.71C278.119 423.71 277.018 424.781 277.018 426.099C277.018 427.417 278.119 428.488 279.474 428.488C280.829 428.488 281.93 427.417 281.93 426.099C281.93 424.781 280.829 423.71 279.474 423.71Z" fill="white"/>
<path d="M288.241 454.788C286.187 454.788 284.514 453.161 284.514 451.164C284.514 449.166 286.187 447.539 288.241 447.539C290.295 447.539 291.968 449.166 291.968 451.164C291.968 453.161 290.295 454.788 288.241 454.788ZM288.241 448.775C286.886 448.775 285.785 449.846 285.785 451.164C285.785 452.482 286.886 453.553 288.241 453.553C289.596 453.553 290.697 452.482 290.697 451.164C290.697 449.846 289.596 448.775 288.241 448.775Z" fill="white"/>
<path d="M302.661 448.775C300.607 448.775 298.935 447.148 298.935 445.15C298.935 443.152 300.607 441.525 302.661 441.525C304.715 441.525 306.388 443.152 306.388 445.15C306.388 447.148 304.715 448.775 302.661 448.775ZM302.661 442.761C301.306 442.761 300.205 443.832 300.205 445.15C300.205 446.468 301.306 447.539 302.661 447.539C304.017 447.539 305.118 446.468 305.118 445.15C305.118 443.832 304.017 442.761 302.661 442.761Z" fill="white"/>
<path d="M333.705 456.58L313.292 535.975H306.855C306.558 535.975 306.283 535.954 305.986 535.933C301.116 535.501 297.008 531.506 295.97 526.789L280.173 455.757C297.791 466.116 313.292 449.352 313.292 449.352L333.705 456.58Z" fill="#66B0F0"/>
<path d="M334.743 497.319C339.041 475.241 340.227 458.373 332.816 457.014C325.404 455.655 312.212 470.298 307.913 492.376C303.615 514.454 305.859 533.978 313.271 535.337C320.682 536.717 330.444 519.417 334.743 497.319Z" fill="white"/>
<path d="M314.118 536.037C313.8 536.037 313.461 536.017 313.143 535.955C309.29 535.254 306.6 530.188 305.563 521.703C304.567 513.527 305.181 503.064 307.278 492.272C309.268 482.078 313.313 472.584 318.67 465.54C323.583 459.094 328.919 455.675 332.921 456.416C336.775 457.117 338.681 461.359 338.787 469.391C338.872 475.941 337.749 485.105 335.357 497.442C333.663 506.133 331.1 514.309 327.945 521.085C324.832 527.778 321.423 532.474 318.098 534.678C316.743 535.563 315.409 536.037 314.118 536.037ZM331.82 457.549C328.432 457.549 323.879 460.803 319.708 466.281C314.456 473.181 310.496 482.49 308.527 492.499C306.452 503.188 305.838 513.506 306.812 521.559C307.765 529.344 310.158 534.142 313.376 534.74C314.605 534.966 315.96 534.595 317.4 533.648C323.901 529.344 330.783 514.371 334.107 497.215C336.5 484.982 337.601 475.879 337.516 469.412C337.432 462.162 335.801 458.208 332.688 457.631C332.413 457.57 332.117 457.549 331.82 457.549Z" fill="#66B0F0"/>
<path d="M304.948 492.025C302.725 503.475 302.069 514.535 303.127 523.185C303.89 529.405 305.499 533.833 307.701 535.974H306.854C306.558 535.974 306.282 535.954 305.986 535.933C303.996 533.38 302.577 529.096 301.857 523.329C300.777 514.576 301.433 503.372 303.699 491.798C305.838 480.841 310.158 470.564 315.896 462.841C319.327 458.228 322.926 454.994 326.209 453.532L328.114 454.15C320.555 456.333 309.078 470.832 304.948 492.025Z" fill="white"/>
<path d="M287.924 287.433L384.527 277.753L481.088 304.094L480.262 316.575C478.949 336.264 461.5 351.587 441.214 351.587H321.001L287.924 287.433Z" fill="#FE5244"/>
<path d="M436.957 343.556H316.744C316.384 343.556 316.108 343.288 316.108 342.938C316.108 342.588 316.384 342.32 316.744 342.32H436.957C446.147 342.32 455.782 337.604 463.406 329.345C470.626 321.519 474.946 311.736 474.946 303.189C474.946 302.839 475.222 302.571 475.582 302.571C475.942 302.571 476.217 302.839 476.217 303.189C476.217 312.045 471.77 322.137 464.358 330.189C456.481 338.675 446.507 343.556 436.957 343.556Z" fill="white"/>
<path d="M427.492 333.258H311.874C311.514 333.258 311.238 332.99 311.238 332.64C311.238 332.29 311.514 332.022 311.874 332.022H427.492C435.518 332.022 443.818 328.356 450.828 321.683C457.413 315.422 462.029 307.349 463.491 299.523C463.554 299.193 463.893 298.967 464.232 299.029C464.571 299.091 464.803 299.42 464.74 299.75C461.754 315.587 445.724 333.258 427.492 333.258Z" fill="white"/>
<path d="M417.306 322.754H305.732C305.372 322.754 305.097 322.486 305.097 322.136C305.097 321.786 305.372 321.518 305.732 321.518H417.306C432.553 321.518 445.788 308.173 450.51 295.63C450.637 295.301 450.997 295.136 451.314 295.26C451.653 295.383 451.823 295.733 451.696 296.042C449.07 303.024 444.326 309.594 438.313 314.537C431.769 319.912 424.506 322.754 417.306 322.754Z" fill="white"/>
<path d="M411.801 311.427H300.227C299.867 311.427 299.592 311.159 299.592 310.809C299.592 310.459 299.867 310.191 300.227 310.191H411.801C422.304 310.191 433.315 303.539 440.557 292.85C440.748 292.561 441.15 292.479 441.447 292.664C441.743 292.85 441.828 293.241 441.637 293.529C434.141 304.568 422.728 311.427 411.801 311.427Z" fill="white"/>
<path d="M406.507 301.129H294.933C294.573 301.129 294.298 300.862 294.298 300.511C294.298 300.161 294.573 299.894 294.933 299.894H406.507C414.596 299.894 422.749 296.269 429.462 289.699C429.716 289.452 430.118 289.452 430.351 289.699C430.605 289.946 430.605 290.337 430.351 290.564C423.405 297.381 414.935 301.129 406.507 301.129Z" fill="white"/>
<path d="M400.79 290.626H289.216C288.856 290.626 288.581 290.358 288.581 290.008C288.581 289.658 288.856 289.39 289.216 289.39H400.79C405.554 289.39 410.34 288.072 415.041 285.498C415.337 285.333 415.74 285.436 415.909 285.724C416.079 286.012 415.973 286.404 415.676 286.569C410.785 289.266 405.766 290.626 400.79 290.626Z" fill="white"/>
<path d="M320.768 352.206C320.535 352.206 320.302 352.082 320.196 351.855L287.141 287.702C286.992 287.393 287.12 287.022 287.416 286.878C287.734 286.734 288.115 286.857 288.263 287.146L321.318 351.299C321.466 351.608 321.339 351.979 321.043 352.123C320.958 352.185 320.873 352.206 320.768 352.206Z" fill="white"/>
<path d="M486.381 218.129C477.276 220.642 468.318 219.901 467.365 217.203C466.476 214.628 470.499 210.221 478.652 207.296C479.054 207.152 479.478 207.008 479.901 206.864C482.358 206.061 484.814 205.546 487.122 205.278C493.962 204.434 499.531 205.628 500.23 207.647C501.183 210.345 496.016 215.473 486.381 218.129Z" fill="white"/>
<path d="M475.539 220.292C470.923 220.292 467.429 219.283 466.751 217.409C465.608 214.113 470.626 209.521 478.419 206.72C478.821 206.576 479.245 206.431 479.668 206.287H479.69C482.082 205.505 484.56 204.969 487.037 204.681C494.047 203.816 499.976 205.01 500.823 207.461C501.119 208.264 500.971 209.253 500.42 210.283C498.642 213.578 493.2 216.914 486.55 218.747C482.718 219.777 478.843 220.292 475.539 220.292ZM491.463 205.628C490.171 205.628 488.753 205.711 487.207 205.896C484.814 206.184 482.421 206.699 480.113 207.461C479.69 207.605 479.266 207.749 478.885 207.894C475.2 209.212 472.066 210.962 470.076 212.836C468.403 214.402 467.62 215.967 467.98 217.017C468.678 219.015 476.831 220.127 486.212 217.553C491.4 216.132 497.456 213.145 499.298 209.706C499.679 208.985 499.806 208.347 499.637 207.852C499.256 206.761 496.249 205.628 491.463 205.628Z" fill="#3FB1B5"/>
<path d="M480.621 278.185H477.127L467.958 217.986V217.945L467.725 216.441C468.17 213.702 472.574 209.83 480.346 207.318C484.221 206.061 488.075 205.505 491.357 205.443L494.703 214.361L495.02 215.205L505.608 243.441C511.961 260.309 499.107 278.185 480.621 278.185Z" fill="#A0505A"/>
<path d="M494.914 215C492.691 216.359 489.811 217.615 486.381 218.562C478.503 220.725 470.52 219.839 467.958 217.986V217.945L467.725 216.441C468.17 213.702 472.574 209.83 480.346 207.318C484.221 206.061 488.075 205.505 491.357 205.443L494.914 215Z" fill="#73325A"/>
<path d="M367.205 228.654L356.088 255.551C350.603 268.835 337.347 277.547 322.609 277.547H173.173V264.242C173.173 261.029 175.206 258.146 178.298 257.013L193.65 251.35C195.048 250.835 196.509 250.567 197.991 250.567H215.419L314.054 240.887L331.079 202.972L367.205 228.654Z" fill="#A0505A"/>
<path d="M173.809 269.865C173.449 269.865 173.173 269.597 173.173 269.247C173.173 266.549 174.846 264.181 177.451 263.213L189.034 258.949C189.351 258.826 189.733 258.991 189.86 259.3C189.987 259.609 189.817 259.979 189.5 260.103L177.917 264.366C175.82 265.149 174.444 267.064 174.444 269.247C174.444 269.597 174.169 269.865 173.809 269.865Z" fill="#73325A"/>
<path d="M173.809 276.661C173.449 276.661 173.173 276.393 173.173 276.043C173.173 273.345 174.846 270.977 177.451 270.009L189.034 265.745C189.351 265.622 189.733 265.787 189.86 266.095C189.987 266.404 189.817 266.775 189.5 266.899L177.917 271.162C175.82 271.944 174.444 273.86 174.444 276.043C174.444 276.393 174.169 276.661 173.809 276.661Z" fill="#73325A"/>
<path d="M177.683 277.547C177.429 277.547 177.175 277.382 177.091 277.135C176.963 276.805 177.133 276.455 177.472 276.352L189.055 272.295C189.394 272.171 189.754 272.336 189.859 272.666C189.986 272.995 189.817 273.345 189.478 273.448L177.895 277.506C177.832 277.526 177.747 277.547 177.683 277.547Z" fill="#73325A"/>
<path d="M188.06 253.635C188.06 253.635 198.901 226.718 202.374 227.171C205.847 227.624 192.761 251.905 192.761 251.905L188.06 253.635Z" fill="#FE5244"/>
<path d="M331.079 202.992L328.581 208.532L360.577 244.677L367.205 228.654L331.079 202.992Z" fill="#73325A"/>
<path d="M467.958 218.006L481.087 304.094L384.548 277.753L367.205 228.633L322.44 196.814L338.152 178.608C352.17 162.358 372.859 152.967 394.67 152.967H425.692C452.67 152.967 477.509 167.301 490.447 190.326L500.505 207.256C500.505 207.256 497.477 202.931 481.151 207.276C466.773 211.127 467.958 218.006 467.958 218.006Z" fill="#3FB1B5"/>
<path d="M367.205 228.86C367.163 228.86 367.099 228.86 367.057 228.84C366.718 228.757 366.506 228.428 366.591 228.098L371.61 206.926C371.694 206.597 372.033 206.391 372.372 206.473C372.711 206.556 372.922 206.885 372.838 207.215L367.819 228.387C367.756 228.675 367.502 228.86 367.205 228.86Z" fill="white"/>
<path d="M478.652 284.611C478.355 284.611 478.08 284.405 478.017 284.096L461.69 185.383C461.627 185.054 461.86 184.724 462.22 184.683C462.558 184.621 462.897 184.848 462.939 185.198L479.266 283.91C479.329 284.24 479.097 284.569 478.737 284.611C478.715 284.611 478.694 284.611 478.652 284.611Z" fill="white"/>
<path d="M480.876 304.711C480.812 304.711 480.77 304.711 480.706 304.691L384.357 277.958C384.019 277.855 383.828 277.526 383.913 277.196C384.018 276.867 384.357 276.681 384.696 276.764L481.045 303.496C481.384 303.599 481.574 303.929 481.49 304.258C481.405 304.526 481.151 304.711 480.876 304.711Z" fill="white"/>
<path d="M389.735 139.21V153.05L414.85 152.844V128.418L389.735 139.21Z" fill="#A0505A"/>
<path d="M416.883 124.154V124.525C416.883 128.232 414.003 131.239 410.191 131.239H408.709C407.756 134.905 399.286 139.189 393.272 139.189H386.263C378.597 139.189 372.732 132.495 373.981 125.122L374.32 123.125L372.245 121.992C371.059 121.333 370.72 119.829 371.546 118.758L376.035 112.992L377.009 107.308C377.793 102.632 380.948 98.8224 385.14 96.9482C386.792 115.051 403.224 117.193 407.565 117.44H409.979C413.791 117.44 416.883 120.447 416.883 124.154Z" fill="#A0505A"/>
<path d="M405.766 126.543C405.406 126.543 405.13 126.276 405.13 125.925C405.13 122.671 407.862 120.015 411.208 120.015C411.568 120.015 411.843 120.282 411.843 120.633C411.843 120.983 411.568 121.25 411.208 121.25C408.561 121.25 406.401 123.351 406.401 125.925C406.401 126.276 406.126 126.543 405.766 126.543Z" fill="#73325A"/>
<path d="M382.811 117.626C383.408 117.626 383.891 116.538 383.891 115.196C383.891 113.854 383.408 112.766 382.811 112.766C382.215 112.766 381.731 113.854 381.731 115.196C381.731 116.538 382.215 117.626 382.811 117.626Z" fill="#73325A"/>
<path d="M387.216 112.127C387.025 112.127 386.834 112.045 386.707 111.88C383.891 108.09 381.265 108.296 381.223 108.296C380.863 108.338 380.566 108.09 380.524 107.74C380.482 107.411 380.736 107.102 381.096 107.061C381.223 107.04 384.484 106.793 387.724 111.139C387.936 111.406 387.872 111.798 387.576 112.004C387.47 112.086 387.343 112.127 387.216 112.127Z" fill="#73325A"/>
<path d="M407.566 117.441H409.98C413.791 117.441 416.883 120.447 416.883 124.155V124.525C416.883 128.232 414.003 131.239 410.191 131.239L408.561 132.351C401.7 136.635 392.213 153.482 394.543 165.407C397.168 178.814 409.175 181.8 420.271 179.741C431.367 177.681 439.456 171.4 436.83 157.972C436.534 156.386 436.047 154.8 435.433 153.235C435.623 153.297 435.793 153.358 435.983 153.42C449.324 156.963 464.994 157.374 469.314 147.242C473.633 137.109 472.659 127.079 459.679 121.848C452.14 118.8 441.891 118.82 433.95 120.921C437.953 107.39 430.838 92.3351 417.772 90.8317C397.253 88.4632 385.479 96.7013 385.162 96.9278C385.141 99.3168 386.813 116.267 407.566 117.441Z" fill="#73325A"/>
<path d="M435.983 154.058C435.687 154.058 435.411 153.852 435.369 153.564C433.124 142.134 423.511 135.832 423.405 135.77C423.235 135.667 423.129 135.461 423.129 135.255C423.129 135.049 423.235 134.864 423.405 134.74C429.969 130.23 432.807 123.722 433.908 120.262C434.014 119.932 434.374 119.747 434.691 119.85C435.03 119.953 435.221 120.303 435.115 120.612C434.014 124.113 431.219 130.539 424.845 135.234C427.238 136.985 434.628 143.122 436.618 153.317C436.682 153.646 436.449 153.976 436.11 154.038C436.068 154.058 436.025 154.058 435.983 154.058Z" fill="white"/>
<path d="M440.24 120.612H434.628C434.268 120.612 433.993 120.344 433.993 119.994V114.536C433.993 111.344 436.661 108.749 439.944 108.749H440.24C443.522 108.749 446.19 111.344 446.19 114.536V114.825C446.212 116.349 445.597 117.811 444.475 118.902C443.353 119.994 441.849 120.612 440.24 120.612ZM435.264 119.376H440.24C441.511 119.376 442.675 118.902 443.565 118.017C444.433 117.152 444.92 116.019 444.92 114.825V114.536C444.92 112.024 442.823 109.985 440.24 109.985H439.944C437.36 109.985 435.264 112.024 435.264 114.536V119.376Z" fill="#FE5244"/>
<path d="M443.374 128.973C441.108 128.973 438.927 127.902 437.635 125.925L434.035 120.365C433.845 120.076 433.929 119.685 434.226 119.52L439.943 116.019C441.468 115.092 443.289 114.783 445.047 115.175C446.804 115.566 448.308 116.596 449.282 118.079L449.621 118.593C450.595 120.076 450.891 121.847 450.489 123.557C450.087 125.266 449.028 126.729 447.503 127.676L446.974 128.005C445.873 128.644 444.623 128.973 443.374 128.973ZM435.454 120.22L438.715 125.266C440.325 127.738 443.734 128.479 446.317 126.914L446.847 126.584C448.096 125.822 448.943 124.648 449.261 123.248C449.578 121.847 449.324 120.426 448.541 119.211L448.202 118.696C447.418 117.481 446.211 116.657 444.771 116.349C443.331 116.04 441.87 116.287 440.621 117.049L435.454 120.22Z" fill="#FE5244"/>
<path d="M408.688 145.45C408.54 145.45 408.391 145.45 408.243 145.429C406.655 145.306 405.215 144.606 404.177 143.432L403.987 143.205C402.949 142.052 402.441 140.569 402.547 139.045C402.653 137.5 403.373 136.079 404.58 135.07L408.561 131.363C408.688 131.239 408.857 131.178 409.027 131.198C409.196 131.198 409.365 131.281 409.471 131.404L413.389 135.709C414.426 136.883 414.956 138.386 414.829 139.931C414.702 141.475 413.982 142.876 412.775 143.885L412.521 144.07C411.483 144.956 410.128 145.45 408.688 145.45ZM408.984 132.681L405.469 135.956L405.448 135.976C404.495 136.78 403.923 137.892 403.839 139.127C403.754 140.342 404.156 141.496 404.961 142.402C404.961 142.402 404.961 142.423 404.982 142.423L405.173 142.649C405.977 143.555 407.1 144.111 408.349 144.214C409.598 144.297 410.805 143.905 411.758 143.123L412.012 142.917C412.944 142.134 413.516 141.043 413.622 139.828C413.706 138.612 413.304 137.439 412.499 136.512L408.984 132.681Z" fill="#FE5244"/>
<path d="M416.798 143.184C413.834 143.184 411.102 141.269 410.255 138.365L408.455 132.042C408.37 131.713 408.561 131.383 408.9 131.28L415.401 129.53C417.137 129.056 418.958 129.283 420.525 130.127C422.092 130.992 423.236 132.392 423.723 134.081L423.892 134.679C424.379 136.367 424.146 138.138 423.278 139.663C422.389 141.187 420.949 142.299 419.212 142.772L418.598 142.937C417.984 143.123 417.391 143.184 416.798 143.184ZM411.483 138.036C412.309 140.857 415.337 142.546 418.238 141.763L418.852 141.598C420.271 141.207 421.436 140.322 422.156 139.086C422.876 137.85 423.045 136.409 422.664 135.029L422.494 134.431C422.092 133.052 421.182 131.919 419.911 131.219C418.641 130.518 417.158 130.354 415.739 130.724L409.853 132.31L411.483 138.036Z" fill="#FE5244"/>
<path d="M316.193 535.955C316.15 535.955 316.108 535.955 316.066 535.934C315.727 535.872 315.494 535.543 315.579 535.193L352.466 367.281C352.53 366.951 352.869 366.725 353.229 366.807C353.568 366.869 353.8 367.198 353.716 367.548L316.807 535.461C316.743 535.749 316.489 535.955 316.193 535.955Z" fill="#FFCF2D"/>
<path d="M484.369 535.955C484.073 535.955 483.818 535.749 483.755 535.46L446.867 367.548C446.804 367.219 447.015 366.889 447.354 366.807C447.693 366.745 448.032 366.951 448.117 367.28L485.004 535.193C485.068 535.522 484.856 535.852 484.517 535.934C484.454 535.955 484.411 535.955 484.369 535.955Z" fill="#FFCF2D"/>
<path d="M475.687 498.677H324.367C324.007 498.677 323.731 498.409 323.731 498.059C323.731 497.709 324.007 497.441 324.367 497.441H475.687C476.047 497.441 476.322 497.709 476.322 498.059C476.322 498.409 476.047 498.677 475.687 498.677Z" fill="#FFCF2D"/>
<path d="M476.512 367.425H324.027C322.1 367.425 320.533 365.901 320.533 364.026V354.985C320.533 353.111 322.1 351.587 324.027 351.587H476.512C478.439 351.587 480.006 353.111 480.006 354.985V364.026C480.006 365.901 478.439 367.425 476.512 367.425Z" fill="white"/>
<path d="M476.512 368.042H324.027C321.74 368.042 319.898 366.25 319.898 364.026V354.985C319.898 352.761 321.74 350.969 324.027 350.969H476.512C478.799 350.969 480.642 352.761 480.642 354.985V364.026C480.642 366.25 478.799 368.042 476.512 368.042ZM324.027 352.204C322.46 352.204 321.168 353.461 321.168 354.985V364.026C321.168 365.55 322.46 366.806 324.027 366.806H476.512C478.079 366.806 479.371 365.55 479.371 364.026V354.985C479.371 353.461 478.079 352.204 476.512 352.204H324.027Z" fill="#66B0F0"/>
</svg>
